<svg xmlns="http://www.w3.org/2000/svg" data-name="Layer 1" viewBox="0 0 100 125" x="0px" y="0px"><title>Forward</title><path d="M97.64,44.1,64.72,11.18a8.06,8.06,0,1,0-11.4,11.39L72.78,42H8.06a8.06,8.06,0,0,0,0,16.12H72.6L53.32,77.43a8.06,8.06,0,0,0,11.4,11.39L97.64,55.9A8,8,0,0,0,100,50.2a1.27,1.27,0,0,0,0-.2,1.41,1.41,0,0,0,0-.2A8.07,8.07,0,0,0,97.64,44.1Z"/><text x="0" y="115" fill="#000000" font-size="5px" font-weight="bold" font-family="'Helvetica Neue', Helvetica, Arial-Unicode, Arial, Sans-serif">Created by Rainbow Designs</text><text x="0" y="120" fill="#000000" font-size="5px" font-weight="bold" font-family="'Helvetica Neue', Helvetica, Arial-Unicode, Arial, Sans-serif">from the Noun Project</text></svg>